<?xml version="1.0" standalone="no"?>
<!DOCTYPE svg PUBLIC "-//W3C//DTD SVG 20010904//EN"
 "http://www.w3.org/TR/2001/REC-SVG-20010904/DTD/svg10.dtd">
<svg version="1.0" xmlns="http://www.w3.org/2000/svg"
 width="200.000000pt" height="200.000000pt" viewBox="0 0 200.000000 200.000000"
 preserveAspectRatio="xMidYMid meet">

<g transform="translate(0.000000,200.000000) scale(0.100000,-0.100000)"
fill="#FFFFFF" stroke="none">
<path d="M175 1795 c-5 -2 -22 -6 -37 -9 -34 -8 -93 -59 -116 -100 -16 -28
-17 -89 -17 -686 0 -597 1 -658 17 -686 22 -40 81 -92 116 -101 35 -10 1689
-10 1724 0 35 9 94 61 116 101 15 28 17 93 20 711 2 633 1 682 -15 715 -27 53
-50 60 -214 60 -80 0 -148 -3 -152 -6 -3 -4 35 -87 84 -186 50 -99 88 -187 85
-194 -4 -11 -34 -14 -135 -14 -110 0 -132 3 -151 18 -13 10 -64 99 -114 198
l-91 179 -79 3 c-44 2 -85 1 -93 -2 -10 -4 11 -54 77 -187 50 -100 89 -188 86
-195 -4 -11 -34 -14 -135 -14 -110 0 -132 3 -151 18 -13 10 -64 99 -114 198
l-91 179 -79 3 c-44 2 -85 1 -93 -2 -10 -4 11 -54 77 -187 50 -100 89 -188 86
-195 -4 -11 -34 -14 -135 -14 -110 0 -132 3 -151 18 -13 10 -64 99 -114 198
l-91 179 -55 2 c-30 1 -59 0 -65 -2z"/>
</g>
</svg>
